<?xml version="1.0" standalone="no"?>
<!DOCTYPE svg PUBLIC "-//W3C//DTD SVG 20010904//EN"
 "http://www.w3.org/TR/2001/REC-SVG-20010904/DTD/svg10.dtd">
<svg version="1.0" xmlns="http://www.w3.org/2000/svg"
 width="424.000000pt" height="164.000000pt" viewBox="0 0 1024.000000 364.000000"
 preserveAspectRatio="xMidYMid meet">

<g transform="translate(0.000000,364.000000) scale(0.100000,-0.100000)"
fill="#000000" stroke="none">
<path d="M2713 3630 c-12 -5 -25 -19 -28 -32 -2 -13 -16 -255 -30 -538 -37
-751 -66 -1149 -96 -1326 -26 -152 -125 -219 -224 -153 -45 30 -92 99 -100
147 -10 63 28 184 110 347 41 83 75 157 75 166 0 33 -183 252 -221 264 -11 4
-49 -3 -86 -16 l-65 -23 -46 49 c-70 75 -100 95 -144 95 -83 0 -252 -83 -352
-172 -92 -82 -103 -81 -198 8 -64 61 -76 64 -223 42 -78 -11 -83 -11 -113 11
-45 32 -66 109 -59 215 13 206 162 395 426 538 66 36 34 72 -189 208 -74 46
-159 100 -189 121 -73 52 -100 51 -180 -7 -201 -146 -325 -344 -367 -586 -14
-77 -15 -126 -8 -293 11 -278 10 -290 -20 -336 -34 -51 -129 -125 -185 -144
-25 -8 -65 -15 -90 -15 -58 0 -93 -18 -105 -52 -13 -37 31 -123 104 -201 31
-34 66 -80 78 -102 34 -67 53 -78 146 -84 136 -9 126 22 126 -400 0 -391 -7
-450 -57 -543 -38 -70 -109 -145 -225 -240 -68 -55 -98 -85 -98 -100 0 -23 42
-65 175 -177 165 -140 186 -145 305 -79 92 50 202 159 247 243 42 79 78 207
92 325 7 52 15 320 19 595 8 536 7 531 59 554 31 14 81 14 121 0 47 -16 48
-46 6 -222 -41 -173 -40 -206 4 -259 72 -85 371 -319 440 -344 49 -17 154 -18
195 0 18 7 66 41 107 75 41 34 95 71 118 83 56 26 93 17 177 -48 109 -82 170
-105 226 -81 19 8 76 41 126 75 137 89 143 89 289 2 163 -99 223 -111 323 -65
254 118 429 389 502 775 20 104 25 118 55 148 39 38 87 44 104 13 5 -11 10
-50 10 -88 0 -57 -31 -389 -55 -593 -11 -95 7 -116 165 -196 88 -44 167 -65
200 -52 46 17 79 58 90 112 5 28 21 160 34 294 18 175 29 251 41 268 33 50
238 164 295 164 11 0 23 -6 26 -13 3 -8 -7 -110 -21 -228 -39 -315 -40 -338
-17 -375 11 -17 62 -63 113 -101 252 -189 306 -191 369 -11 74 214 133 286
334 406 79 48 85 49 116 24 28 -23 39 -79 49 -260 9 -166 15 -180 102 -226 30
-15 85 -46 122 -69 48 -28 79 -40 107 -40 45 0 128 38 235 107 89 58 126 60
184 12 103 -86 287 -176 362 -176 58 0 133 26 284 98 167 79 181 79 386 -16
86 -40 170 -72 186 -72 48 0 132 33 290 115 146 76 149 77 208 73 70 -6 123
-31 212 -99 57 -43 70 -49 113 -49 58 0 164 51 313 151 105 70 98 70 197 -15
148 -127 180 -125 398 29 68 47 139 93 157 102 33 16 36 15 55 -2 12 -11 44
-56 71 -102 27 -45 64 -92 81 -104 90 -65 259 -13 427 129 48 41 111 115 111
131 0 4 -14 12 -31 18 -27 11 -31 16 -25 39 4 15 18 41 30 58 59 77 150 294
138 327 -7 19 -18 12 -128 -81 -65 -57 -141 -113 -169 -126 -111 -52 -266 -67
-304 -30 -41 42 0 252 69 356 40 61 39 96 -5 141 -19 20 -114 91 -212 159 -98
68 -218 152 -267 187 -105 76 -131 84 -180 53 -20 -12 -36 -25 -36 -30 0 -5
-105 -105 -232 -223 -299 -275 -355 -333 -363 -380 -6 -31 1 -51 49 -146 31
-62 56 -123 56 -140 0 -20 -11 -43 -31 -65 -38 -44 -130 -90 -163 -82 -27 7
-91 68 -111 107 -45 84 -42 443 6 776 17 114 8 132 -84 173 -40 18 -120 48
-180 68 -103 34 -108 35 -140 20 -63 -30 -67 -49 -103 -518 -18 -234 -35 -444
-39 -467 -8 -53 -37 -90 -89 -114 -54 -24 -69 -24 -102 5 l-28 23 12 534 c16
706 33 1002 68 1216 22 132 19 136 -127 188 -65 23 -139 56 -166 73 -65 42
-107 50 -133 27 -18 -17 -20 -32 -20 -179 0 -217 -18 -601 -31 -689 -6 -40
-17 -82 -25 -94 -19 -31 -61 -30 -126 3 -59 30 -104 32 -181 10 -264 -77 -463
-447 -495 -919 -8 -113 -11 -130 -32 -152 -33 -35 -88 -34 -121 1 -24 25 -24
27 -21 202 3 218 18 415 38 507 38 178 36 236 -11 285 -54 56 -307 159 -359
146 -51 -13 -104 -74 -157 -183 -38 -78 -68 -123 -116 -174 -73 -77 -165 -143
-224 -161 -66 -19 -72 -7 -74 174 -2 103 -7 162 -16 181 -16 35 -108 84 -238
127 -145 49 -157 43 -191 -90 -34 -133 -49 -161 -114 -204 -97 -64 -217 -105
-270 -92 -31 8 -37 24 -46 123 -5 58 -12 89 -25 103 -43 47 -360 190 -422 190
-35 0 -51 -36 -59 -132 l-7 -86 -51 -26 c-91 -46 -124 -34 -207 71 -86 109
-183 132 -308 73 -36 -17 -71 -28 -78 -26 -27 11 -43 73 -43 168 1 106 12 175
71 444 l42 192 -21 43 c-25 52 -82 92 -247 175 -114 57 -164 70 -202 54z"/>
<path d="M7898 3280 c-21 -13 -45 -80 -53 -150 -3 -30 -15 -89 -26 -132 -25
-101 -25 -133 3 -152 12 -9 29 -16 38 -16 8 0 64 -25 124 -55 184 -94 224 -87
246 46 7 41 22 103 35 139 50 147 44 178 -42 210 -32 11 -94 42 -138 67 -83
48 -153 64 -187 43z"/>
<path d="M3913 3273 c-7 -2 -22 -35 -33 -71 -11 -37 -29 -80 -40 -97 -24 -36
-27 -110 -6 -159 7 -18 29 -44 47 -56 19 -13 51 -39 72 -57 35 -32 41 -33 117
-33 46 0 95 6 113 14 71 29 112 113 124 252 3 44 1 78 -6 91 -15 29 -84 60
-162 73 -36 5 -94 19 -129 30 -64 20 -76 22 -97 13z"/>
<path d="M1725 403 c-74 -39 -108 -99 -109 -190 0 -122 89 -209 205 -201 72 5
109 28 109 68 0 36 0 36 -42 10 -45 -27 -117 -27 -152 1 -39 31 -56 71 -56
133 0 48 4 60 31 91 51 57 126 65 195 20 24 -15 24 -15 24 18 0 28 -5 36 -35
50 -45 21 -130 21 -170 0z"/>
<path d="M5061 379 c-11 -24 -51 -115 -89 -201 l-70 -158 32 0 c29 0 34 5 53
50 l21 50 75 0 74 0 21 -50 c19 -45 24 -50 53 -50 21 0 29 4 26 12 -20 49
-170 384 -173 387 -2 2 -13 -16 -23 -40z m69 -201 c0 -4 -23 -8 -51 -8 -37 0
-50 3 -46 13 3 6 15 36 28 65 l22 53 24 -57 c12 -32 23 -61 23 -66z"/>
<path d="M7370 223 l0 -203 25 0 25 0 0 137 0 137 139 -145 140 -144 0 203 1
202 -25 0 -25 0 0 -130 c0 -72 -1 -130 -3 -130 -2 0 -65 62 -140 138 l-137
137 0 -202z"/>
<path d="M9163 278 c-34 -79 -73 -169 -87 -201 l-26 -57 31 0 c27 0 33 5 52
50 l21 50 77 0 77 0 18 -50 c17 -46 20 -50 51 -50 l33 0 -26 58 c-14 31 -53
121 -87 199 -34 79 -64 143 -67 143 -3 0 -33 -64 -67 -142z m113 -90 c5 -16
-2 -18 -46 -18 -58 0 -57 -2 -18 88 l21 46 18 -50 c11 -27 22 -57 25 -66z"/>
<path d="M2260 215 l0 -195 105 0 105 0 0 30 0 30 -75 0 -76 0 3 63 3 62 73 3
c69 3 72 4 72 27 0 24 -2 25 -75 25 l-75 0 0 50 0 50 75 0 c73 0 75 1 75 25
l0 25 -105 0 -105 0 0 -195z"/>
<path d="M2800 215 l0 -195 98 0 99 0 -5 30 c-4 30 -5 30 -68 30 l-64 0 0 165
0 165 -30 0 -30 0 0 -195z"/>
<path d="M3300 215 l0 -195 105 0 105 0 0 30 0 30 -75 0 -76 0 3 63 3 62 73 0
c72 0 72 0 72 28 l0 27 -75 0 -75 0 0 50 0 50 75 0 c73 0 75 1 75 25 l0 25
-105 0 -105 0 0 -195z"/>
<path d="M3840 214 l0 -196 90 4 c81 3 92 5 116 29 18 18 28 41 31 72 5 41 2
49 -25 77 -31 31 -31 31 -12 50 30 30 27 104 -5 135 -22 23 -32 25 -110 25
l-85 0 0 -196z m141 136 c22 -12 27 -68 7 -88 -7 -7 -29 -12 -50 -12 l-38 0 0
55 c0 55 0 55 31 55 17 0 39 -5 50 -10z m19 -170 c44 -44 4 -110 -66 -110
l-34 0 0 65 0 65 40 0 c27 0 47 -7 60 -20z"/>
<path d="M4400 215 l0 -195 30 0 30 0 0 92 0 92 63 -90 c54 -77 67 -89 95 -92
18 -2 32 -1 32 2 0 3 -27 43 -59 88 l-60 83 27 14 c40 21 51 41 52 93 0 36 -6
54 -26 77 -25 30 -29 31 -105 31 l-79 0 0 -195z m131 135 c13 -7 19 -21 19
-43 0 -42 -15 -57 -57 -57 l-33 0 0 55 c0 52 1 55 26 55 14 0 34 -5 45 -10z"/>
<path d="M5490 385 c0 -23 3 -25 50 -25 l50 0 0 -170 0 -170 30 0 30 0 0 170
0 170 50 0 c47 0 50 2 50 25 l0 25 -130 0 -130 0 0 -25z"/>
<path d="M6050 215 l0 -195 105 0 105 0 0 30 0 30 -75 0 -76 0 3 63 3 62 73 0
c72 0 72 0 72 28 l0 27 -75 0 -75 0 0 50 0 50 75 0 c73 0 75 1 75 25 l0 25
-105 0 -105 0 0 -195z"/>
<path d="M6960 215 l0 -195 30 0 30 0 0 195 0 195 -30 0 -30 0 0 -195z"/>
<path d="M8050 215 l0 -197 98 4 c153 6 202 48 209 182 4 60 1 78 -19 115 -38
73 -63 85 -184 89 l-104 4 0 -197z m180 132 c62 -31 88 -125 56 -201 -20 -49
-51 -66 -118 -66 l-58 0 0 140 0 140 48 0 c26 0 58 -6 72 -13z"/>
<path d="M8690 215 l0 -195 30 0 30 0 0 195 0 195 -30 0 -30 0 0 -195z"/>
</g>
</svg>
