<?xml version="1.0" standalone="no"?>
<!DOCTYPE svg PUBLIC "-//W3C//DTD SVG 20010904//EN"
 "http://www.w3.org/TR/2001/REC-SVG-20010904/DTD/svg10.dtd">
<svg version="1.0" xmlns="http://www.w3.org/2000/svg"
 width="662.000000pt" height="267.000000pt" viewBox="0 0 662.000000 267.000000"
 preserveAspectRatio="xMidYMid meet">

<g transform="translate(0.000000,267.000000) scale(0.100000,-0.100000)"
fill="#000000" stroke="none">
<path d="M3485 2566 c-11 -9 -98 -224 -232 -574 -4 -10 20 -12 112 -10 l117 3
59 169 c32 93 61 171 63 174 3 3 8 -1 11 -9 2 -8 25 -71 49 -140 24 -69 51
-142 60 -162 l15 -37 110 0 c67 0 111 4 111 10 0 17 -221 569 -229 575 -18 10
-232 12 -246 1z"/>
<path d="M4674 2563 c-6 -7 -38 -79 -69 -160 -32 -81 -82 -209 -111 -283 l-53
-135 106 -3 c59 -1 112 -1 118 1 6 3 37 82 70 176 33 94 62 171 65 171 3 0 27
-64 54 -142 27 -78 55 -157 63 -175 l13 -33 115 0 115 0 -9 23 c-5 12 -56 143
-114 290 -58 148 -108 271 -111 275 -13 12 -239 8 -252 -5z"/>
<path d="M2730 2485 l0 -84 83 -3 82 -3 3 -207 2 -208 115 0 115 0 0 210 0
210 80 0 80 0 0 85 0 85 -280 0 -280 0 0 -85z"/>
<path d="M3922 2488 l3 -83 83 -3 82 -3 0 -209 0 -210 115 0 115 0 0 210 0
210 80 0 80 0 0 85 0 85 -280 0 -281 0 3 -82z"/>
<path d="M535 2546 c-123 -31 -241 -131 -287 -243 l-23 -58 0 -786 0 -785 38
-76 c43 -89 112 -157 197 -197 l55 -26 785 -3 c754 -2 786 -2 842 17 137 46
237 159 267 301 9 40 11 254 9 805 l-3 750 -32 67 c-38 81 -104 155 -171 191
-105 57 -101 57 -897 56 -545 0 -743 -4 -780 -13z m983 -436 c227 -63 394
-219 469 -438 20 -59 27 -103 31 -189 6 -141 -14 -236 -73 -349 l-43 -82 84
-83 c98 -98 112 -123 95 -180 -19 -64 -95 -98 -154 -68 -12 6 -59 47 -103 91
l-82 80 -93 -46 c-200 -97 -405 -101 -596 -10 -189 90 -334 270 -379 470 -22
100 -15 263 15 347 81 229 263 401 491 461 84 22 250 20 338 -4z"/>
<path d="M1220 1891 c-88 -28 -140 -60 -200 -120 -123 -125 -168 -289 -120
-442 39 -126 125 -226 248 -287 64 -31 85 -36 164 -40 111 -6 195 15 276 67
275 179 280 587 8 763 -116 75 -258 97 -376 59z"/>
<path d="M4795 1707 c-28 -28 -35 -43 -35 -73 0 -34 8 -46 93 -131 88 -88 95
-93 136 -93 60 0 101 41 101 101 0 39 -5 47 -88 131 -76 78 -93 90 -129 95
-39 5 -46 2 -78 -30z"/>
<path d="M5720 1635 c-183 -33 -367 -175 -448 -346 -49 -104 -65 -170 -65
-274 0 -104 16 -170 65 -274 57 -120 169 -232 289 -289 102 -49 162 -62 281
-62 107 0 187 19 283 66 39 19 74 34 79 34 5 0 46 -35 91 -78 45 -44 93 -81
107 -84 41 -8 94 19 112 57 30 63 16 95 -84 188 -38 35 -70 68 -70 72 0 4 18
44 40 88 76 155 89 317 36 482 -67 211 -262 381 -481 420 -97 17 -138 17 -235
0z m302 -238 c240 -118 313 -419 154 -634 -153 -209 -454 -226 -643 -37 -222
222 -127 586 182 697 38 13 73 17 141 14 82 -2 100 -7 166 -40z"/>
<path d="M3160 1633 c-80 -13 -182 -58 -244 -106 -80 -63 -149 -209 -177 -371
-18 -109 -7 -303 25 -409 34 -115 58 -159 117 -223 89 -94 228 -144 399 -144
185 0 333 54 428 154 62 65 69 105 26 155 -41 49 -89 41 -170 -30 -82 -71
-138 -91 -257 -92 -121 -1 -185 17 -245 69 -106 91 -148 333 -96 562 18 80 43
128 91 174 61 59 123 82 228 82 117 1 170 -18 263 -94 62 -50 80 -60 112 -60
30 0 44 6 64 31 45 54 31 103 -52 181 -97 91 -210 128 -382 126 -58 0 -116 -3
-130 -5z"/>
<path d="M3969 1601 l-29 -29 0 -556 0 -555 24 -28 24 -28 310 0 c298 0 312 1
338 21 33 24 44 57 32 101 -17 63 -36 68 -293 71 l-230 3 -5 490 -5 491 -28
24 c-41 35 -99 33 -138 -5z"/>
<path d="M4867 1269 c-46 -35 -50 -74 -44 -450 6 -385 6 -387 72 -409 44 -15
80 -4 110 32 l25 30 0 380 0 380 -29 29 c-37 36 -94 40 -134 8z"/>
</g>
</svg>
