<svg id="Layer_1" data-name="Layer 1" xmlns="http://www.w3.org/2000/svg" viewBox="0 0 300 113.03"><defs><style>.cls-1{fill:#f8991d;}.cls-1,.cls-2{fill-rule:evenodd;}.cls-2{fill:#221f1f;}</style></defs><path class="cls-1" d="M180.26,79.41C165.55,90.25,144.23,96,125.88,96A98.42,98.42,0,0,1,59.44,70.69c-1.37-1.25-.14-3,1.51-2a133.69,133.69,0,0,0,66.47,17.63A132.1,132.1,0,0,0,178.12,76c2.49-1,4.57,1.63,2.14,3.44m6.11-7c-1.87-2.41-12.43-1.14-17.16-.58-1.45.18-1.67-1.08-.37-2,8.41-5.92,22.2-4.21,23.81-2.23s-.42,15.82-8.32,22.42c-1.21,1-2.37.48-1.83-.87,1.78-4.43,5.76-14.35,3.87-16.76"/><path class="cls-2" d="M169.54,28.09V22.34A1.41,1.41,0,0,1,171,20.89h25.75a1.43,1.43,0,0,1,1.49,1.45v4.93c0,.82-.71,1.9-1.94,3.61L183,49.93c5-.12,10.19.62,14.68,3.15A2.61,2.61,0,0,1,199,55.32v6.13c0,.84-.93,1.82-1.9,1.31a29.67,29.67,0,0,0-27.2.05c-.89.48-1.83-.49-1.83-1.32V55.66a6.94,6.94,0,0,1,1-4l15.46-22.16H171a1.43,1.43,0,0,1-1.48-1.45M75.62,64H67.78a1.47,1.47,0,0,1-1.39-1.34V22.44A1.47,1.47,0,0,1,67.89,21H75.2a1.48,1.48,0,0,1,1.42,1.34V27.6h.14c1.91-5.08,5.49-7.45,10.32-7.45s8,2.37,10.16,7.45a11.57,11.57,0,0,1,19.89-3.05c2.48,3.38,2,8.29,2,12.6V62.52A1.48,1.48,0,0,1,117.58,64h-7.82a1.5,1.5,0,0,1-1.41-1.46V41.22c0-1.7.15-5.93-.22-7.54-.59-2.7-2.34-3.46-4.61-3.46a5.22,5.22,0,0,0-4.68,3.29c-.8,2-.73,5.42-.73,7.71v21.3A1.48,1.48,0,0,1,96.6,64H88.78a1.49,1.49,0,0,1-1.41-1.46V41.22c0-4.49.74-11.09-4.82-11.09s-5.41,6.44-5.41,11.09v21.3A1.49,1.49,0,0,1,75.62,64M220.39,20.15c11.63,0,17.92,10,17.92,22.67,0,12.27-7,22-17.92,22-11.41,0-17.62-10-17.62-22.42s6.29-22.24,17.62-22.24m.07,8.21c-5.77,0-6.14,7.86-6.14,12.77s-.08,15.4,6.07,15.4,6.36-8.46,6.36-13.62c0-3.39-.14-7.45-1.17-10.66-.88-2.8-2.63-3.89-5.12-3.89M253.38,64h-7.8a1.49,1.49,0,0,1-1.41-1.46V22.31A1.47,1.47,0,0,1,245.67,21h7.26a1.48,1.48,0,0,1,1.39,1.12v6.15h.15c2.19-5.5,5.26-8.12,10.67-8.12a10.29,10.29,0,0,1,9.15,4.74c2,3.21,2,8.62,2,12.51V62.71A1.51,1.51,0,0,1,274.83,64H267a1.5,1.5,0,0,1-1.39-1.27V40.87c0-4.39.51-10.83-4.9-10.83a5.13,5.13,0,0,0-4.53,3.22,17.81,17.81,0,0,0-1.24,7.61V62.52A1.51,1.51,0,0,1,253.38,64M149,44.77c0,3.06.08,5.6-1.46,8.31a6.38,6.38,0,0,1-5.42,3.56c-3,0-4.77-2.29-4.77-5.67,0-6.68,6-7.89,11.65-7.89Zm7.9,19.1a1.63,1.63,0,0,1-1.85.18,19.05,19.05,0,0,1-4.49-5.22c-4.3,4.39-7.35,5.7-12.92,5.7-6.6,0-11.72-4.07-11.72-12.21a13.29,13.29,0,0,1,8.35-12.8c4.26-1.87,10.19-2.2,14.73-2.72v-1c0-1.86.15-4.06-1-5.67a5.2,5.2,0,0,0-4.39-2c-3,0-5.64,1.53-6.29,4.71A1.64,1.64,0,0,1,136,34.21l-7.59-.82a1.38,1.38,0,0,1-1.17-1.64c1.74-9.21,10.07-12,17.52-12,3.81,0,8.79,1,11.8,3.91C160.37,27.22,160,32,160,37.14V49.35c0,3.66,1.52,5.27,3,7.26a1.47,1.47,0,0,1,0,2.08c-1.6,1.33-4.44,3.81-6,5.2ZM46.32,44.77c0,3.06.08,5.6-1.46,8.31a6.37,6.37,0,0,1-5.42,3.56c-3,0-4.76-2.29-4.76-5.67,0-6.68,6-7.89,11.64-7.89Zm7.9,19.1a1.63,1.63,0,0,1-1.85.18,19.23,19.23,0,0,1-4.49-5.22c-4.3,4.39-7.34,5.7-12.92,5.7-6.58,0-11.72-4.07-11.72-12.21a13.3,13.3,0,0,1,8.35-12.8c4.26-1.87,10.19-2.2,14.73-2.72v-1c0-1.86.15-4.06-.94-5.67a5.26,5.26,0,0,0-4.4-2c-3,0-5.65,1.53-6.3,4.71a1.64,1.64,0,0,1-1.36,1.43l-7.6-.82a1.39,1.39,0,0,1-1.17-1.64c1.76-9.21,10.07-12,17.52-12,3.81,0,8.79,1,11.8,3.91,3.81,3.55,3.45,8.3,3.45,13.47V49.35c0,3.66,1.52,5.27,3,7.26a1.47,1.47,0,0,1,0,2.08c-1.6,1.33-4.44,3.81-6,5.2Z"/></svg>