<?xml version="1.0" encoding="UTF-8"?>
<!DOCTYPE svg PUBLIC "-//W3C//DTD SVG 1.1//EN" "http://www.w3.org/Graphics/SVG/1.1/DTD/svg11.dtd">
<svg xmlns="http://www.w3.org/2000/svg" version="1.1" width="480px" height="80px" style="shape-rendering:geometricPrecision; text-rendering:geometricPrecision; image-rendering:optimizeQuality; fill-rule:evenodd; clip-rule:evenodd" xmlns:xlink="http://www.w3.org/1999/xlink">
<g><path style="opacity:0.9" fill="#bb4225" d="M 16.5,-0.5 C 25.5,-0.5 34.5,-0.5 43.5,-0.5C 44.5624,0.575371 44.5624,1.57537 43.5,2.5C 40.9159,3.39276 38.2492,3.72609 35.5,3.5C 35.6666,24.5026 35.5,45.5026 35,66.5C 31.8375,72.8359 27.0042,77.1692 20.5,79.5C 15.8333,79.5 11.1667,79.5 6.5,79.5C 4.20878,78.235 1.87544,76.9017 -0.5,75.5C -0.5,73.1667 -0.5,70.8333 -0.5,68.5C 5.28473,66.2814 7.9514,68.2814 7.5,74.5C 15.3095,75.5154 20.8095,72.5154 24,65.5C 24.5,44.836 24.6666,24.1694 24.5,3.5C 22.1432,3.66331 19.8098,3.49665 17.5,3C 16.6634,1.98873 16.33,0.822066 16.5,-0.5 Z"/></g>
<g><path style="opacity:0.854" fill="#bb4225" d="M 90.5,-0.5 C 91.5,-0.5 92.5,-0.5 93.5,-0.5C 101.09,17.7642 108.59,36.0975 116,54.5C 118.546,57.1856 121.713,58.1856 125.5,57.5C 125.5,58.5 125.5,59.5 125.5,60.5C 114.833,60.5 104.167,60.5 93.5,60.5C 93.5,59.5 93.5,58.5 93.5,57.5C 96.8067,56.9492 100.14,56.6159 103.5,56.5C 102.238,51.7168 100.572,47.0501 98.5,42.5C 95.3333,42.1667 92.1667,41.8333 89,41.5C 85.3969,41.5501 82.0636,42.2168 79,43.5C 77.4017,47.4612 75.9017,51.4612 74.5,55.5C 76.8511,57.2289 79.5178,57.8956 82.5,57.5C 82.5,58.5 82.5,59.5 82.5,60.5C 75.1667,60.5 67.8333,60.5 60.5,60.5C 60.5,59.5 60.5,58.5 60.5,57.5C 63.4822,57.8956 66.1489,57.2289 68.5,55.5C 76.4007,37.0358 83.734,18.3691 90.5,-0.5 Z M 88.5,18.5 C 91.9573,24.3292 94.9573,30.4959 97.5,37C 92.1357,37.8295 86.8023,37.6628 81.5,36.5C 84.2322,30.6337 86.5655,24.6337 88.5,18.5 Z"/></g>
<g><path style="opacity:0.857" fill="#bb4225" d="M 130.5,-0.5 C 140.5,-0.5 150.5,-0.5 160.5,-0.5C 160.5,0.5 160.5,1.5 160.5,2.5C 157.428,2.18259 154.428,2.51592 151.5,3.5C 155.496,11.4955 159.996,19.1622 165,26.5C 169.978,18.8759 174.145,10.8759 177.5,2.5C 175.143,2.66331 172.81,2.49665 170.5,2C 169.748,1.32924 169.414,0.495904 169.5,-0.5C 176.833,-0.5 184.167,-0.5 191.5,-0.5C 191.5,0.5 191.5,1.5 191.5,2.5C 188.315,2.01964 185.481,2.68631 183,4.5C 178,13.8333 173,23.1667 168,32.5C 167.5,40.8267 167.334,49.16 167.5,57.5C 170.187,57.3359 172.854,57.5026 175.5,58C 176.833,59 176.833,60 175.5,61C 166.5,61.6667 157.5,61.6667 148.5,61C 147.663,59.9887 147.33,58.8221 147.5,57.5C 150.685,57.9804 153.519,57.3137 156,55.5C 156.667,48.5 156.667,41.5 156,34.5C 150.333,24.5 144.667,14.5 139,4.5C 136.435,2.82069 133.602,2.15402 130.5,2.5C 130.5,1.5 130.5,0.5 130.5,-0.5 Z"/></g>
<g><path style="opacity:0.886" fill="#bb4225" d="M 210.5,-0.5 C 221.833,-0.5 233.167,-0.5 244.5,-0.5C 256.718,3.72933 259.885,11.7293 254,23.5C 246.987,29.4652 238.821,31.7985 229.5,30.5C 229.334,39.1731 229.5,47.8397 230,56.5C 232.381,57.435 234.881,57.7683 237.5,57.5C 237.67,58.8221 237.337,59.9887 236.5,61C 228.5,61.6667 220.5,61.6667 212.5,61C 211.027,60.2904 210.36,59.1238 210.5,57.5C 213.119,57.7683 215.619,57.435 218,56.5C 218.667,39.1667 218.667,21.8333 218,4.5C 215.894,2.70896 213.394,2.04229 210.5,2.5C 210.5,1.5 210.5,0.5 210.5,-0.5 Z M 231.5,2.5 C 242.898,2.58338 247.064,8.25005 244,19.5C 240.682,24.7823 235.848,27.1156 229.5,26.5C 228.915,18.2279 229.582,10.2279 231.5,2.5 Z"/></g>
<g><path style="opacity:0.869" fill="#bb4225" d="M 298.5,-0.5 C 303.833,-0.5 309.167,-0.5 314.5,-0.5C 332.019,6.52035 339.185,19.5204 336,38.5C 329.786,56.3634 317.286,63.5301 298.5,60C 280.669,53.8109 273.169,41.3109 276,22.5C 279.015,10.3193 286.515,2.65262 298.5,-0.5 Z M 302.5,2.5 C 313.952,2.44193 320.785,8.1086 323,19.5C 325.74,30.6989 324.407,41.3655 319,51.5C 310.04,59.7155 301.374,59.3821 293,50.5C 285.191,35.1111 286.025,20.2777 295.5,6C 297.925,4.78739 300.259,3.62073 302.5,2.5 Z"/></g>
<g><path style="opacity:0.886" fill="#bb4225" d="M 353.5,-0.5 C 365.167,-0.5 376.833,-0.5 388.5,-0.5C 397.697,2.55253 401.197,8.88586 399,18.5C 398.215,20.286 397.049,21.786 395.5,23C 392.254,24.8586 388.921,26.5252 385.5,28C 389.468,28.9643 392.635,31.1309 395,34.5C 397.519,40.9389 399.185,47.6056 400,54.5C 400.333,54.8333 400.667,55.1667 401,55.5C 402.334,51.8956 404.834,50.729 408.5,52C 410.829,58.5124 408.495,61.3457 401.5,60.5C 394.758,60.9337 390.258,57.9337 388,51.5C 386.852,45.4636 385.518,39.4636 384,33.5C 380.708,30.6803 376.875,29.3469 372.5,29.5C 372.168,38.5246 372.502,47.5246 373.5,56.5C 376.084,57.3928 378.751,57.7261 381.5,57.5C 381.5,58.5 381.5,59.5 381.5,60.5C 372.143,60.8316 362.81,60.4983 353.5,59.5C 353.709,58.914 354.043,58.414 354.5,58C 356.81,57.5034 359.143,57.3367 361.5,57.5C 361.833,39.4877 361.5,21.4877 360.5,3.5C 358.253,2.62578 355.92,2.29245 353.5,2.5C 353.5,1.5 353.5,0.5 353.5,-0.5 Z M 376.5,2.5 C 386.217,3.5781 389.717,8.91143 387,18.5C 383.682,23.7823 378.848,26.1156 372.5,25.5C 372.334,18.825 372.5,12.1583 373,5.5C 373.985,4.18586 375.152,3.18586 376.5,2.5 Z"/></g>
<g><path style="opacity:0.892" fill="#bb4225" d="M 427.5,-0.5 C 444.833,-0.5 462.167,-0.5 479.5,-0.5C 479.5,5.16667 479.5,10.8333 479.5,16.5C 478.325,16.719 477.325,16.3857 476.5,15.5C 476.18,10.6901 474.18,6.85679 470.5,4C 462.507,3.50029 454.507,3.33362 446.5,3.5C 446.5,11.8333 446.5,20.1667 446.5,28.5C 450.853,28.2354 455.187,27.7354 459.5,27C 461.643,24.2422 462.81,21.0755 463,17.5C 464.011,16.6634 465.178,16.33 466.5,16.5C 466.5,25.5 466.5,34.5 466.5,43.5C 465.178,43.67 464.011,43.3366 463,42.5C 462.81,38.9245 461.643,35.7578 459.5,33C 455.249,31.8054 450.915,31.3054 446.5,31.5C 446.5,39.8333 446.5,48.1667 446.5,56.5C 454.507,56.6664 462.507,56.4997 470.5,56C 474.18,53.1432 476.18,49.3099 476.5,44.5C 477.325,43.6143 478.325,43.281 479.5,43.5C 479.5,49.1667 479.5,54.8333 479.5,60.5C 462.154,60.8328 444.821,60.4995 427.5,59.5C 427.709,58.914 428.043,58.414 428.5,58C 430.764,57.7638 432.931,57.2638 435,56.5C 435.667,38.8333 435.667,21.1667 435,3.5C 432.931,2.73622 430.764,2.23622 428.5,2C 427.748,1.32924 427.414,0.495904 427.5,-0.5 Z"/></g>
</svg>
