<?xml version="1.0" encoding="UTF-8"?>
<!DOCTYPE svg PUBLIC "-//W3C//DTD SVG 1.1//EN" "http://www.w3.org/Graphics/SVG/1.1/DTD/svg11.dtd">
<svg xmlns="http://www.w3.org/2000/svg" version="1.1" width="971px" height="421px" style="shape-rendering:geometricPrecision; text-rendering:geometricPrecision; image-rendering:optimizeQuality; fill-rule:evenodd; clip-rule:evenodd" xmlns:xlink="http://www.w3.org/1999/xlink">
<g><path style="opacity:1" fill="#fefefe" d="M -0.5,-0.5 C 323.167,-0.5 646.833,-0.5 970.5,-0.5C 970.5,139.833 970.5,280.167 970.5,420.5C 646.833,420.5 323.167,420.5 -0.5,420.5C -0.5,280.167 -0.5,139.833 -0.5,-0.5 Z"/></g>
<g><path style="opacity:1" fill="#bc3d19" d="M 251.5,112.5 C 251.783,113.289 252.283,113.956 253,114.5C 253.5,102.505 253.667,90.5046 253.5,78.5C 269.5,78.5 285.5,78.5 301.5,78.5C 301.5,169.5 301.5,260.5 301.5,351.5C 285.5,351.5 269.5,351.5 253.5,351.5C 253.667,340.162 253.5,328.828 253,317.5C 252.283,318.044 251.783,318.711 251.5,319.5C 210.755,354.184 164.088,365.351 111.5,353C 68.5563,339.392 37.3896,312.226 18,271.5C -3.41723,216.063 4.91611,165.73 43,120.5C 92.6771,70.8312 150.177,59.3312 215.5,86C 228.784,93.1209 240.784,101.954 251.5,112.5 Z"/></g>
<g><path style="opacity:1" fill="#bc3d19" d="M 889.5,113.5 C 890.499,102.915 890.832,91.582 890.5,79.5C 906.5,79.5 922.5,79.5 938.5,79.5C 938.5,170.167 938.5,260.833 938.5,351.5C 922.5,351.5 906.5,351.5 890.5,351.5C 890.667,340.162 890.5,328.828 890,317.5C 846.212,356.648 796.046,367.481 739.5,350C 671.464,321.286 639.797,269.953 644.5,196C 652.355,149.83 676.355,114.83 716.5,91C 745.161,75.0798 775.828,69.0798 808.5,73C 840.172,77.5026 867.172,91.0026 889.5,113.5 Z"/></g>
<g><path style="opacity:1" fill="#cc6c51" d="M 370.5,79.5 C 458.668,78.1679 547.001,78.1679 635.5,79.5C 635.376,80.1067 635.043,80.44 634.5,80.5C 546.668,79.5006 458.668,79.1673 370.5,79.5 Z"/></g>
<g><path style="opacity:1" fill="#edcbc2" d="M 253.5,78.5 C 253.667,90.5046 253.5,102.505 253,114.5C 252.283,113.956 251.783,113.289 251.5,112.5C 252.167,101.167 252.833,89.8333 253.5,78.5 Z"/></g>
<g><path style="opacity:1" fill="#bc3d19" d="M 370.5,79.5 C 458.668,79.1673 546.668,79.5006 634.5,80.5C 572.5,156.167 510.5,231.833 448.5,307.5C 505.998,308.499 563.664,308.832 621.5,308.5C 621.5,322.5 621.5,336.5 621.5,350.5C 529.665,350.833 437.998,350.499 346.5,349.5C 408.288,273.874 470.288,198.374 532.5,123C 478.501,122.5 424.501,122.333 370.5,122.5C 370.5,108.167 370.5,93.8333 370.5,79.5 Z"/></g>
<g><path style="opacity:1" fill="#d78b75" d="M 938.5,79.5 C 922.5,79.5 906.5,79.5 890.5,79.5C 890.832,91.582 890.499,102.915 889.5,113.5C 889.5,101.833 889.5,90.1667 889.5,78.5C 906.009,78.1702 922.342,78.5036 938.5,79.5 Z"/></g>
<g><path style="opacity:1" fill="#fefefe" d="M 144.5,118.5 C 194.008,115.825 229.174,136.825 250,181.5C 261.208,217.548 255.542,250.548 233,280.5C 197.348,315.164 156.515,322.997 110.5,304C 64.0932,276.328 47.5932,236.162 61,183.5C 76.4935,145.825 104.327,124.159 144.5,118.5 Z"/></g>
<g><path style="opacity:1" fill="#fefefe" d="M 781.5,118.5 C 830.274,116.283 865.108,136.95 886,180.5C 897.098,212.798 893.765,243.465 876,272.5C 854.707,299.48 826.707,313.48 792,314.5C 748.814,312.915 718.147,292.582 700,253.5C 682.998,202.624 696.498,162.124 740.5,132C 753.345,124.551 767.012,120.051 781.5,118.5 Z"/></g>
<g><path style="opacity:1" fill="#edcdc4" d="M 253.5,351.5 C 252.833,340.833 252.167,330.167 251.5,319.5C 251.783,318.711 252.283,318.044 253,317.5C 253.5,328.828 253.667,340.162 253.5,351.5 Z"/></g>
<g><path style="opacity:1" fill="#cb6b50" d="M 448.5,307.5 C 506.5,307.5 564.5,307.5 622.5,307.5C 622.5,322.167 622.5,336.833 622.5,351.5C 529.833,351.667 437.166,351.5 344.5,351C 345.044,350.283 345.711,349.783 346.5,349.5C 437.998,350.499 529.665,350.833 621.5,350.5C 621.5,336.5 621.5,322.5 621.5,308.5C 563.664,308.832 505.998,308.499 448.5,307.5 Z"/></g>
</svg>
