<svg xmlns="http://www.w3.org/2000/svg" viewBox="0 0 314.33 263.93"><defs><style>.cls-1{fill:#f8e9e4;}.cls-2{fill:#f8d5c9;}.cls-3{fill:#a4c639;}.cls-4{opacity:0.1;}.cls-5{fill:#f0c419;}.cls-6{fill:#d36bc5;}.cls-7{fill:#dadada;}.cls-8{fill:#e2413e;}.cls-9{fill:#28384f;}.cls-10{fill:#fff;}.cls-11{fill:#33aeff;}</style></defs><g id="Layer_2" data-name="Layer 2"><g id="Objects"><path class="cls-1" d="M288.58,67.75H169.83a8.25,8.25,0,0,1,0-16.5h17.43a21.42,21.42,0,0,0,21.41-21.41h0A21.42,21.42,0,0,0,187.26,8.43H41.41A21.42,21.42,0,0,0,20,29.84h0A21.42,21.42,0,0,0,41.41,51.25H103a8.25,8.25,0,0,1,0,16.5H86.25A25.75,25.75,0,0,0,60.5,93.5h0a25.75,25.75,0,0,0,25.75,25.75H194.72a8.24,8.24,0,0,1,.32,16.48H23.3A23.31,23.31,0,0,0,0,159H0a23.3,23.3,0,0,0,23.3,23.3H74.18a8.25,8.25,0,0,1,1.22,16.4H67.14a23.31,23.31,0,1,0,0,46.61H230.53a23.31,23.31,0,0,0,0-46.61h-14.2a8.25,8.25,0,0,1,1.22-16.4h50.72a23.3,23.3,0,0,0,23.3-23.3h0a23.31,23.31,0,0,0-23.3-23.31h-7a8.24,8.24,0,0,1,.32-16.48h27A25.75,25.75,0,0,0,314.33,93.5h0A25.75,25.75,0,0,0,288.58,67.75ZM159,190.59a8.24,8.24,0,0,1-7,8.15H139.78a8.25,8.25,0,0,1,1.22-16.4h9.73A8.25,8.25,0,0,1,159,190.59Z"/><rect class="cls-2" x="71.67" y="248.93" width="171" height="15" rx="7.5"/><rect class="cls-2" x="27.08" y="248.93" width="33.17" height="15" rx="7.5"/><path class="cls-2" d="M258,263.93h.54a7.5,7.5,0,0,1-7.5-7.5h0a7.5,7.5,0,0,1,7.5-7.5H258a7.5,7.5,0,0,1,7.5,7.5h0A7.5,7.5,0,0,1,258,263.93Z"/><path class="cls-3" d="M149.36,144.57l-8.14,0-.09,14.31-19.72-.13.09-14.31L92,144.2l.1-14.67,31-44.76,18.45.12-.28,44.71,8.14.05Zm-27.77-15.1.06-8.6q0-2.43.22-6.54c.13-2.75.24-4.19.3-4.33h-.55a54.6,54.6,0,0,1-3.94,7.26l-8.27,12.13Z"/><path class="cls-4" d="M141.22,144.52l8.14,0,.1-14.92-8.14-.05.09-14.65a21.6,21.6,0,0,0-2.57,2.58q-7.26,8.67-8.79,28.33a80.63,80.63,0,0,0,0,12.9l11.12.07Z"/><path class="cls-5" d="M188.14,150q-1.51,19.58-8.78,28.16t-20.77,7.55q-13.22-1-19.18-11.05t-4.52-28.78q1.53-19.67,8.79-28.33t20.78-7.62q13.15,1,19.15,11.09T188.14,150Zm-33.43-2.58q-1,12.49.23,17.31t4.88,5.1q3.74.28,5.64-4.44t2.86-16.92q.94-12.25-.23-17.29t-4.87-5.32q-3.67-.28-5.61,4.33T154.71,147.4Z"/><path class="cls-4" d="M183.61,121a22.22,22.22,0,0,0-4.62-5.55l-8.18,15.91,1.82,14.56,15.78-2Q188.61,129.41,183.61,121Z"/><path class="cls-6" d="M233,135.44l-8.08,1,1.78,14.2-19.57,2.45-1.78-14.2-29.26,3.67L174.31,128l24.91-48.44,18.32-2.29,5.56,44.36,8.08-1Zm-29.51-11.33-1.07-8.53q-.3-2.42-.64-6.52c-.22-2.74-.31-4.18-.26-4.33l-.55.07a53.57,53.57,0,0,1-3,7.71l-6.61,13.12Z"/><path class="cls-7" d="M227.84,200.24H98L82.85,97.53h164Zm-123.51-7.33h117.4l16.26-88H91.35Z"/><rect class="cls-7" x="92.25" y="127.78" width="145" height="4"/><rect class="cls-7" x="98.26" y="166.23" width="132.98" height="4"/><rect class="cls-7" x="162.75" y="101.2" width="4" height="95.38"/><rect class="cls-7" x="120.83" y="100.94" width="4" height="95.89" transform="translate(-14.72 13.48) rotate(-5.93)"/><rect class="cls-7" x="157.7" y="146.89" width="96.1" height="4" transform="translate(32.86 334.92) rotate(-82.99)"/><polygon class="cls-7" points="84.55 107.33 67.02 89.92 43.85 89.92 43.85 77.45 72.16 77.45 93.34 98.48 84.55 107.33"/><path class="cls-7" d="M219.41,234.79H100.67a23.6,23.6,0,0,1,0-47.2h.49v12.47h-.49a11.13,11.13,0,0,0,0,22.25H219.41Z"/><path class="cls-8" d="M58.65,89.92H36.15a6.24,6.24,0,0,1,0-12.47h22.5a6.24,6.24,0,1,1,0,12.47Z"/><circle class="cls-9" cx="216.97" cy="234.3" r="22.13" transform="matrix(0.16, -0.99, 0.99, 0.16, -48.2, 412.21)"/><circle class="cls-10" cx="216.97" cy="234.3" r="11.13" transform="translate(-48.13 412.32) rotate(-81.08)"/><circle class="cls-9" cx="100.89" cy="234.3" r="22.13" transform="translate(-146.61 296.07) rotate(-80.72)"/><circle class="cls-10" cx="100.89" cy="234.3" r="11.13" transform="translate(-146.58 296.21) rotate(-80.75)"/><path class="cls-5" d="M103.93,39.42a2.84,2.84,0,1,1-2.84-2.84A2.84,2.84,0,0,1,103.93,39.42Z"/><circle class="cls-11" cx="172.97" cy="87.11" r="3.5"/><circle class="cls-3" cx="264.92" cy="70.5" r="2.75"/><circle class="cls-5" cx="108.75" cy="155.75" r="2.75"/><circle class="cls-6" cx="171.86" cy="3" r="2.75"/><circle class="cls-8" cx="288" cy="119.25" r="2.75"/><circle class="cls-3" cx="179.86" cy="216.41" r="2.75"/><circle class="cls-8" cx="26.33" cy="54" r="2.75"/><path class="cls-3" d="M62.3,108.43a3.82,3.82,0,1,1-3.82-3.81A3.82,3.82,0,0,1,62.3,108.43Z"/><path class="cls-8" d="M190.81,19.58A1.84,1.84,0,1,1,189,17.75,1.83,1.83,0,0,1,190.81,19.58Z"/><circle class="cls-6" cx="98.26" cy="90.61" r="1.83"/><path class="cls-11" d="M257.8,132a2.24,2.24,0,1,1-2.23-2.24A2.23,2.23,0,0,1,257.8,132Z"/><circle class="cls-6" cx="142.3" cy="209.41" r="2.23"/><path class="cls-9" d="M111.35,9H110V7.66a1.58,1.58,0,1,0-3.15,0V9H105.5a1.58,1.58,0,0,0,0,3.15h1.35v1.35a1.58,1.58,0,0,0,3.15,0V12.16h1.35a1.58,1.58,0,1,0,0-3.15Z"/><path class="cls-9" d="M251.76,166.66h-1.35v-1.35a1.58,1.58,0,1,0-3.15,0v1.35h-1.35a1.58,1.58,0,1,0,0,3.15h1.35v1.35a1.58,1.58,0,0,0,3.15,0v-1.35h1.35a1.58,1.58,0,0,0,0-3.15Z"/><path class="cls-9" d="M256.26,37.84h-1.35V36.49a1.58,1.58,0,0,0-3.15,0v1.35h-1.35a1.58,1.58,0,1,0,0,3.15h1.35v1.35a1.58,1.58,0,1,0,3.15,0V41h1.35a1.58,1.58,0,0,0,0-3.15Z"/><path class="cls-9" d="M72.08,142.81H70.74v-1.35a1.58,1.58,0,0,0-3.16,0v1.35H66.24a1.58,1.58,0,1,0,0,3.15h1.34v1.35a1.58,1.58,0,1,0,3.16,0V146h1.34a1.58,1.58,0,1,0,0-3.15Z"/><path class="cls-6" d="M69.22,54.5a3,3,0,0,1-1.64-.5l-9.13-6a3,3,0,1,1,3.29-5l9.13,6a3,3,0,0,1-1.65,5.51Z"/><path class="cls-3" d="M227.18,28.33a3,3,0,0,1-1.72-.54,3,3,0,0,1-.73-4.18l8.1-11.5a3,3,0,1,1,4.91,3.45l-8.1,11.5A3,3,0,0,1,227.18,28.33Z"/><path class="cls-6" d="M281.66,90.11a3,3,0,0,1-.78-5.9l12.67-3.42a3,3,0,1,1,1.57,5.79L282.45,90A3.07,3.07,0,0,1,281.66,90.11Z"/><path class="cls-3" d="M263,200.57a3,3,0,0,1-1.76-.57l-10.33-7.5a3,3,0,1,1,3.53-4.85l10.33,7.5a3,3,0,0,1-1.77,5.42Z"/><path class="cls-5" d="M51.67,185.34a3,3,0,0,1-1.75-5.44l10.63-7.59A3,3,0,1,1,64,177.19l-10.63,7.59A3,3,0,0,1,51.67,185.34Z"/><path class="cls-5" d="M147.25,22.58a3,3,0,0,1-2.93-2.36L140.73,3.63a3,3,0,0,1,5.87-1.26L150.18,19a3,3,0,0,1-2.3,3.57A3.36,3.36,0,0,1,147.25,22.58Z"/><path class="cls-3" d="M20,129.58a3,3,0,0,1-.9-5.86l12.66-4a3,3,0,1,1,1.81,5.72l-12.67,4A2.82,2.82,0,0,1,20,129.58Z"/><path class="cls-5" d="M289,149.58a2.75,2.75,0,0,1-.57-.05l-11.33-2.2a3,3,0,1,1,1.14-5.89l11.33,2.2a3,3,0,0,1-.57,5.94Z"/><path class="cls-9" d="M111.12,75.54a9.6,9.6,0,0,1-7.29-.75,8.94,8.94,0,0,1-3.93-6c-.68-2.94-.46-5.36.66-7.28a8.56,8.56,0,0,1,5.82-3.83,8.63,8.63,0,0,1,6.55.65,8,8,0,0,1,3.51,5.41l.62,2.67-10.74,2.48a3,3,0,0,0,1.6,2,4.25,4.25,0,0,0,2.93.2,13.51,13.51,0,0,0,2.84-1,15.45,15.45,0,0,0,2.65-1.69l1,4.32a11.15,11.15,0,0,1-2.69,1.67A20.26,20.26,0,0,1,111.12,75.54Zm-3.58-13.85a2.52,2.52,0,0,0-1.62,1.08,3.21,3.21,0,0,0-.35,2.29l5.16-1.2A3.08,3.08,0,0,0,109.55,62,2.4,2.4,0,0,0,107.54,61.69Z"/><path class="cls-9" d="M142.16,44.07a8.93,8.93,0,0,1,1.52.25l.34.09-1,5.75a9.22,9.22,0,0,0-2.07-.36,4,4,0,0,0-3,.68,3.58,3.58,0,0,0-1.13,2.57l-.73,8.75-6.15-.51,1.49-17.81,4.57.39.72,2.92.3,0a6.08,6.08,0,0,1,2.34-2.1A5.06,5.06,0,0,1,142.16,44.07Z"/><path class="cls-9" d="M168.83,53a9.14,9.14,0,0,1,1.53-.16h.35l.53,5.82a9.43,9.43,0,0,0-2.1.2,4,4,0,0,0-2.71,1.45,3.61,3.61,0,0,0-.41,2.78l1.62,8.63-6.06,1.14L158.29,55.3l4.51-.85,1.47,2.63.29-.06a6.28,6.28,0,0,1,1.69-2.65A5.18,5.18,0,0,1,168.83,53Z"/><path class="cls-9" d="M231.74,54.67a9.58,9.58,0,0,1,1.53.07l.35.06-.37,5.83a9,9,0,0,0-2.1-.12,4,4,0,0,0-2.9,1,3.62,3.62,0,0,0-.83,2.69L227.7,73l-6.16.19L221,55.33l4.58-.15L226.61,58h.3A6.11,6.11,0,0,1,229,55.63,5.17,5.17,0,0,1,231.74,54.67Z"/><path class="cls-9" d="M205.35,55c-.29,4.06-1.19,7-2.69,8.79a7.23,7.23,0,0,1-6.46,2.39,7.13,7.13,0,0,1-6-3.42q-1.87-3.1-1.46-9,.45-6.14,2.7-8.85a7.19,7.19,0,0,1,6.46-2.41,7.11,7.11,0,0,1,6,3.43C205.15,48,205.63,51,205.35,55Zm-10.43-.76a19.67,19.67,0,0,0,.11,5.4c.25,1,.76,1.53,1.52,1.58s1.36-.41,1.76-1.39a20,20,0,0,0,.86-5.28,20.34,20.34,0,0,0-.1-5.39q-.37-1.58-1.53-1.65c-.76-.06-1.34.4-1.74,1.36A20.25,20.25,0,0,0,194.92,54.21Z"/></g></g></svg>