<?xml version="1.0" standalone="no"?>
<!DOCTYPE svg PUBLIC "-//W3C//DTD SVG 20010904//EN"
 "http://www.w3.org/TR/2001/REC-SVG-20010904/DTD/svg10.dtd">
<svg version="1.0" xmlns="http://www.w3.org/2000/svg"
 width="429.000000pt" height="376.000000pt" viewBox="0 0 429.000000 376.000000"
 preserveAspectRatio="xMidYMid meet">

<g transform="translate(0.000000,376.000000) scale(0.100000,-0.100000)"
fill="lightcoral" stroke="none">
<path d="M1870 3262 c-14 -20 -27 -39 -30 -42 -5 -5 -29 -54 -54 -110 -36 -83
-54 -196 -55 -345 0 -104 9 -206 24 -267 11 -44 -8 -32 -33 21 -26 52 -116
151 -138 151 -25 0 -29 -4 -42 -43 -23 -68 13 -314 59 -399 5 -10 9 -26 9 -35
0 -10 6 -29 13 -43 7 -14 24 -54 37 -90 13 -36 37 -90 52 -120 15 -30 28 -61
28 -67 0 -7 4 -13 9 -13 5 0 12 -12 15 -26 12 -47 24 -51 147 -52 l115 0 33
71 c39 85 71 154 82 182 4 11 17 41 28 67 12 26 21 54 21 62 0 8 4 17 9 20 5
4 12 24 16 46 4 22 10 42 15 45 4 3 11 29 15 58 4 28 12 58 17 65 6 7 11 69
12 137 1 131 -5 151 -43 137 -39 -15 -113 -93 -135 -142 -6 -14 -17 -31 -24
-39 -10 -11 -12 -1 -7 55 3 38 11 94 16 125 6 30 9 82 6 115 -7 102 -28 239
-38 249 -5 5 -9 18 -9 30 -1 11 -9 38 -20 60 -11 22 -19 46 -20 53 0 6 -4 12
-10 12 -5 0 -10 5 -10 10 0 11 -34 62 -57 87 -18 20 -26 16 -53 -25z"/>
<path d="M1104 2533 c-3 -10 -10 -30 -16 -44 -11 -31 12 -112 48 -170 37 -59
17 -60 -70 -2 -28 18 -56 33 -62 33 -7 0 -14 5 -16 11 -2 5 -22 13 -46 16
l-42 6 0 -46 c0 -25 4 -48 9 -52 5 -3 12 -19 16 -35 4 -17 10 -30 15 -30 4 0
11 -11 14 -25 4 -14 11 -25 16 -25 6 0 10 -5 10 -12 0 -6 7 -18 15 -27 8 -9
45 -52 82 -96 65 -78 215 -231 284 -289 19 -16 48 -42 65 -58 l31 -29 49 25
c56 29 109 52 142 61 21 6 30 30 15 37 -5 2 -26 39 -48 83 -22 44 -42 82 -45
85 -3 3 -12 19 -21 35 -44 85 -65 120 -71 123 -5 2 -8 10 -8 17 0 8 -6 20 -12
27 -7 8 -18 23 -24 33 -32 57 -39 70 -44 75 -15 15 -50 71 -50 80 0 5 -4 10
-9 10 -5 0 -12 8 -15 18 -9 27 -142 162 -160 162 -9 0 -16 5 -16 10 0 17 -30
11 -36 -7z"/>
<path d="M2639 2525 c-20 -13 -51 -43 -70 -67 -18 -24 -39 -47 -45 -53 -18
-15 -134 -192 -134 -205 0 -5 -4 -10 -10 -10 -5 0 -10 -6 -10 -14 0 -8 -6 -21
-12 -28 -7 -8 -19 -25 -27 -38 -8 -14 -27 -47 -43 -75 -16 -27 -34 -62 -41
-77 -6 -16 -14 -28 -18 -28 -4 0 -10 -12 -14 -27 -3 -15 -10 -30 -13 -33 -4
-3 -20 -29 -36 -59 -23 -43 -26 -55 -15 -62 8 -5 20 -9 27 -9 7 0 20 -4 30 -9
13 -7 83 -40 143 -69 13 -6 287 259 387 374 114 130 172 234 172 305 l0 42
-41 -6 c-23 -3 -45 -9 -48 -14 -3 -4 -27 -19 -53 -33 -27 -13 -48 -28 -48 -31
0 -4 -13 -12 -30 -18 -18 -6 -30 -6 -30 -1 0 5 14 35 30 65 24 45 30 67 30
118 0 90 -18 104 -81 62z"/>
<path d="M598 2072 c-36 -4 -52 -49 -37 -106 6 -23 14 -43 18 -46 10 -8 51
-69 51 -76 0 -4 -31 -4 -69 0 -40 3 -81 2 -97 -4 -24 -10 -26 -14 -21 -51 4
-29 16 -50 45 -78 33 -33 152 -111 168 -111 6 0 92 -37 114 -49 9 -5 30 -12
49 -16 18 -4 44 -13 59 -21 15 -8 37 -14 49 -14 12 0 24 -4 27 -9 3 -4 24 -11
46 -15 23 -3 49 -11 58 -16 15 -8 69 -22 145 -37 20 -4 27 -1 27 10 0 8 3 17
8 19 4 2 25 26 47 53 21 28 44 54 50 58 12 9 -160 174 -310 296 -27 23 -57 47
-65 55 -33 29 -139 95 -200 124 -64 30 -110 40 -162 34z"/>
<path d="M3160 2073 c-41 -6 -130 -37 -130 -45 0 -4 -5 -8 -12 -8 -12 0 -186
-114 -203 -134 -5 -6 -26 -24 -45 -40 -128 -104 -290 -258 -290 -274 0 -6 6
-17 13 -24 7 -7 32 -39 56 -70 40 -54 71 -72 85 -49 3 5 30 12 61 16 30 3 57
11 60 16 4 5 15 9 25 9 21 0 215 62 267 86 17 8 38 14 47 14 9 0 16 5 16 10 0
6 5 10 11 10 16 0 103 43 107 53 2 4 8 7 14 7 36 0 138 117 138 159 0 29 -51
42 -131 35 -38 -4 -69 -4 -69 0 0 3 18 33 40 65 71 104 44 179 -60 164z"/>
<path d="M1765 1740 c-73 -15 -130 -30 -165 -46 -70 -31 -105 -49 -108 -56 -2
-5 -8 -8 -13 -8 -38 0 -229 -192 -229 -230 0 -5 -4 -10 -8 -10 -15 0 -90 -178
-106 -252 -6 -28 -6 -28 41 -28 45 0 49 2 62 33 8 17 22 51 33 75 l18 42 611
0 c516 0 613 -2 625 -14 8 -8 14 -18 14 -21 0 -4 6 -21 14 -38 8 -18 16 -41
18 -52 3 -16 12 -21 52 -23 l49 -3 -7 47 c-3 27 -11 53 -16 58 -6 6 -10 17
-10 26 0 14 -30 77 -81 170 -34 63 -149 178 -220 219 -53 32 -115 61 -129 61
-9 0 -20 4 -25 9 -10 10 -67 26 -145 41 -55 11 -220 10 -275 0z m285 -110 c30
-6 60 -15 65 -20 6 -4 23 -10 40 -14 16 -4 32 -11 35 -14 3 -4 26 -18 51 -32
51 -27 120 -81 155 -120 68 -76 84 -96 84 -107 0 -10 -122 -13 -575 -13 -316
0 -575 3 -575 7 0 15 57 89 100 131 49 48 157 122 177 122 7 0 13 4 13 10 0 5
16 12 35 16 19 3 38 10 40 15 3 4 27 11 53 15 26 3 54 10 62 15 20 12 170 5
240 -11z"/>
<path d="M337 1480 c-95 -24 -100 -81 -12 -125 30 -16 55 -34 55 -40 0 -7 -18
-15 -39 -19 -56 -9 -131 -43 -131 -60 0 -30 113 -78 230 -97 99 -17 371 -16
538 1 115 11 132 15 132 31 0 10 5 21 10 24 6 3 10 14 10 23 0 9 6 29 14 44
13 25 12 28 -9 42 -13 8 -36 18 -51 22 -16 4 -33 10 -39 14 -5 4 -44 17 -85
30 -41 12 -82 26 -90 30 -9 4 -31 11 -50 14 -19 4 -44 11 -55 16 -11 5 -40 13
-65 19 -25 5 -63 14 -85 20 -59 15 -234 22 -278 11z"/>
<path d="M3255 1479 c-38 -5 -81 -13 -95 -18 -14 -6 -41 -13 -60 -16 -19 -3
-46 -10 -60 -15 -14 -5 -59 -18 -100 -30 -41 -12 -89 -28 -107 -36 -17 -8 -38
-14 -46 -14 -9 0 -19 -4 -22 -10 -3 -5 -13 -10 -22 -10 -8 0 -31 -7 -49 -16
-32 -15 -34 -20 -28 -48 3 -16 10 -37 14 -46 4 -8 13 -27 18 -42 10 -25 15
-26 109 -33 54 -3 121 -11 148 -16 106 -22 456 2 535 37 56 25 101 48 106 56
15 23 -40 58 -116 73 -63 13 -66 26 -13 51 26 12 58 33 71 47 l23 25 -23 27
c-37 43 -127 53 -283 34z"/>
<path d="M3206 981 c-3 -4 -19 -11 -36 -15 -38 -7 -116 -83 -126 -120 -3 -14
-10 -26 -15 -26 -5 0 -9 -22 -9 -50 0 -27 4 -50 9 -50 5 0 12 -12 15 -26 10
-37 88 -113 126 -120 17 -4 33 -11 36 -15 7 -12 121 -12 128 0 3 4 19 11 36
15 39 7 130 95 130 125 0 11 5 21 10 21 6 0 10 23 10 50 0 28 -4 50 -10 50 -5
0 -10 10 -10 21 0 30 -91 118 -130 125 -17 4 -33 11 -36 15 -3 5 -32 9 -64 9
-32 0 -61 -4 -64 -9z m162 -61 c2 -5 9 -10 16 -10 7 0 28 -16 47 -36 32 -33
34 -39 34 -104 0 -65 -2 -71 -34 -104 -19 -20 -40 -36 -47 -36 -7 0 -14 -6
-16 -12 -6 -18 -190 -18 -195 0 -3 6 -10 12 -17 12 -7 0 -28 16 -47 36 -32 33
-34 39 -34 104 0 65 2 71 34 104 19 20 41 36 48 36 7 0 13 4 13 9 0 5 12 12
28 14 44 8 166 -1 170 -13z"/>
<path d="M3190 770 c0 -123 1 -130 20 -130 18 0 20 7 20 55 0 52 1 55 25 55
18 0 26 -7 31 -25 3 -14 10 -25 14 -25 5 0 10 -10 12 -21 4 -28 33 -48 49 -32
7 7 8 16 0 29 -5 11 -18 36 -27 58 -16 36 -16 39 -1 48 11 6 17 22 17 48 0 34
-4 42 -30 55 -16 8 -52 15 -80 15 l-50 0 0 -130z m116 65 c9 -23 -15 -45 -47
-45 -26 0 -29 4 -29 30 0 28 3 30 35 30 23 0 38 -6 41 -15z"/>
<path d="M1711 901 c-8 -5 -14 -24 -14 -41 0 -35 15 -50 53 -50 38 0 53 15 53
50 0 35 -15 50 -53 50 -14 0 -31 -4 -39 -9z"/>
<path d="M785 878 c-74 -205 -164 -483 -157 -490 5 -5 27 -8 48 -6 38 3 39 5
57 61 l19 58 95 -3 96 -3 16 -45 c23 -66 28 -70 77 -70 36 0 44 3 44 18 0 18
-152 461 -165 482 -9 15 -125 13 -130 -2z m99 -196 l35 -102 -70 0 c-38 0 -69
3 -69 7 0 13 64 202 67 199 2 -2 19 -49 37 -104z"/>
<path d="M1447 843 c-4 -3 -7 -23 -7 -44 0 -34 -3 -38 -27 -41 -25 -3 -28 -7
-28 -38 0 -31 3 -35 28 -38 l27 -3 0 -115 c0 -127 11 -162 55 -182 52 -24 120
-12 129 23 10 38 -2 52 -41 51 -45 -1 -51 13 -52 137 l-1 87 44 0 c36 0 46 4
51 20 13 41 -3 60 -51 60 l-44 0 0 45 0 45 -38 0 c-21 0 -42 -3 -45 -7z"/>
<path d="M1256 740 c-34 -31 -35 -31 -38 -8 -2 19 -9 23 -38 23 l-35 0 0 -185
0 -185 45 0 45 0 3 121 c2 114 4 123 28 149 19 20 32 26 57 23 31 -3 32 -1 35
36 5 64 -44 76 -102 26z"/>
<path d="M1969 761 c-54 -18 -69 -31 -69 -61 0 -40 13 -44 59 -20 48 24 104
26 125 4 9 -8 16 -31 16 -50 0 -33 -1 -34 -41 -34 -69 0 -127 -20 -155 -53
-22 -26 -25 -38 -21 -74 2 -24 13 -53 22 -63 41 -45 137 -50 188 -10 25 20 25
20 30 -1 4 -16 12 -20 39 -17 l33 3 3 143 c3 154 -6 193 -50 221 -26 16 -142
24 -179 12z m131 -255 c0 -59 -81 -92 -113 -45 -31 43 2 77 76 78 36 1 37 0
37 -33z"/>
<path d="M2416 740 c-34 -31 -35 -31 -38 -8 -2 19 -9 23 -38 23 l-35 0 0 -185
0 -185 45 0 45 0 3 121 c2 114 4 123 28 149 19 20 32 26 57 23 31 -3 32 -1 35
36 5 64 -44 76 -102 26z"/>
<path d="M2649 761 c-54 -18 -69 -31 -69 -61 0 -40 13 -44 59 -20 48 24 104
26 125 4 9 -8 16 -31 16 -50 0 -33 -1 -34 -41 -34 -69 0 -127 -20 -155 -53
-22 -26 -25 -38 -21 -74 2 -24 13 -53 22 -63 41 -45 137 -50 188 -10 25 20 25
20 30 -1 4 -16 12 -20 39 -17 l33 3 3 143 c3 154 -6 193 -50 221 -26 16 -142
24 -179 12z m131 -255 c0 -59 -81 -92 -113 -45 -31 43 2 77 76 78 36 1 37 0
37 -33z"/>
<path d="M1705 748 c-3 -8 -4 -92 -3 -188 l3 -175 45 0 45 0 0 185 0 185 -43
3 c-28 2 -44 -1 -47 -10z"/>
</g>
</svg>
